# xmcd CD database file
#
# Track frame offsets:
#	150
#	13461
#	28131
#	45922
#	58676
#	77822
#	91999
#	107413
#	120780
#	134580
#
# Disc length: 2076 seconds
#
# Revision: 0
# Processed by: cddbd v1.5.1PL0 Copyright (c) Steve Scherf et al.
# Submitted via: CDex 1.51
#
DISCID=79081a0a
DTITLE=Tommy Brandt - Hook, Line and Sinker
DYEAR=2004
DGENRE=Country
TTITLE0=Forgiven
TTITLE1=Hook, Line and Sinker
TTITLE2=Pictures
TTITLE3=Hangin' on For Life
TTITLE4=I Believe in Angels
TTITLE5=Let it Go
TTITLE6=Cross Along the Road
TTITLE7=Hi-O Silver
TTITLE8=I Wonder
TTITLE9=In With the New
EXTD=YEAR: 2004
EXTT0=
EXTT1=
EXTT2=
EXTT3=
EXTT4=
EXTT5=
EXTT6=
EXTT7=
EXTT8=
EXTT9=
PLAYORDER=
